<?xml version="1.0" encoding="utf-8"?>
<!-- Generator: Adobe Illustrator 16.0.0, SVG Export Plug-In . SVG Version: 6.00 Build 0)  -->
<!DOCTYPE svg PUBLIC "-//W3C//DTD SVG 1.1//EN" "http://www.w3.org/Graphics/SVG/1.1/DTD/svg11.dtd" [
	<!ENTITY ns_flows "http://ns.adobe.com/Flows/1.0/">
	<!ENTITY ns_extend "http://ns.adobe.com/Extensibility/1.0/">
	<!ENTITY ns_ai "http://ns.adobe.com/AdobeIllustrator/10.0/">
	<!ENTITY ns_graphs "http://ns.adobe.com/Graphs/1.0/">
]>
<svg version="1.1" id="Layer_1" xmlns:x="&ns_extend;" xmlns:i="&ns_ai;" xmlns:graph="&ns_graphs;"
	 xmlns="http://www.w3.org/2000/svg" xmlns:xlink="http://www.w3.org/1999/xlink" xmlns:a="http://ns.adobe.com/AdobeSVGViewerExtensions/3.0/"
	 x="0px" y="0px" width="200px" height="100px" viewBox="0 0 200 100" enable-background="new 0 0 200 100" xml:space="preserve">
<g>
	<g>
		<g>
			<rect x="75.701" y="57.855" fill="#E8E7E5" width="47.482" height="2.526"/>
			<polygon fill="#484848" points="123.183,57.855 75.701,57.855 79.505,53.385 119.379,53.385 			"/>
			<rect x="75.701" y="57.855" fill="#353635" width="47.482" height="1.212"/>
			<polygon fill="#CCCCCC" points="109.27,57.305 79.45,57.305 81.695,53.436 107.024,53.436 			"/>
			<ellipse fill="#484848" cx="87.97" cy="54.233" rx="5.06" ry="0.612"/>
			<ellipse fill="#484848" cx="87.483" cy="56.087" rx="5.547" ry="0.659"/>
			<ellipse fill="#484848" cx="100.283" cy="54.233" rx="5.06" ry="0.612"/>
			<ellipse fill="#484848" cx="100.77" cy="56.087" rx="5.547" ry="0.659"/>
			<g>
				<path fill="#353635" d="M80.002,54.209c0,0.07,0.21,0.127,0.47,0.127c0.258,0,0.469-0.057,0.469-0.127c0-0.057,0-0.615,0-0.672
					c0-0.068-0.211-0.126-0.469-0.126c-0.259,0-0.47,0.058-0.47,0.126C80.002,53.594,80.002,54.152,80.002,54.209z"/>
				<ellipse fill="#5C5C5C" cx="80.472" cy="53.537" rx="0.469" ry="0.126"/>
			</g>
			<g>
				<path fill="#353635" d="M79.569,54.75c0,0.077,0.233,0.141,0.522,0.141c0.288,0,0.522-0.063,0.522-0.141
					c0-0.063,0-0.684,0-0.747c0-0.078-0.234-0.141-0.522-0.141c-0.289,0-0.522,0.063-0.522,0.141
					C79.569,54.066,79.569,54.688,79.569,54.75z"/>
				<ellipse fill="#5C5C5C" cx="80.091" cy="54.003" rx="0.522" ry="0.141"/>
			</g>
			<g>
				<path fill="#353635" d="M79.188,55.267c0,0.078,0.236,0.142,0.527,0.142c0.292,0,0.528-0.063,0.528-0.142
					c0-0.063,0-0.691,0-0.754c0-0.08-0.236-0.143-0.528-0.143c-0.291,0-0.527,0.063-0.527,0.143
					C79.188,54.575,79.188,55.203,79.188,55.267z"/>
				<ellipse fill="#5C5C5C" cx="79.716" cy="54.513" rx="0.527" ry="0.143"/>
			</g>
			<g>
				<path fill="#353635" d="M78.702,55.873c0,0.088,0.262,0.159,0.586,0.159c0.324,0,0.586-0.071,0.586-0.159
					c0-0.069,0-0.768,0-0.838c0-0.088-0.262-0.159-0.586-0.159c-0.324,0-0.586,0.071-0.586,0.159
					C78.702,55.105,78.702,55.804,78.702,55.873z"/>
				<ellipse fill="#5C5C5C" cx="79.288" cy="55.035" rx="0.586" ry="0.159"/>
			</g>
		</g>
		<g>
			<g>
				<g>
					<g>
						<g>
							<g>
								
									<rect x="98.735" y="24.356" transform="matrix(0.9974 -0.0721 0.0721 0.9974 -1.8079 7.3624)" fill="#EFCAC6" width="4.728" height="8.746"/>
								<g>
									<path fill="#85491F" d="M105.231,21.573c0.157,2.168-1.916,5.015-4.292,5.187c-2.376,0.172-4.786-2.375-4.943-4.543
										c-0.156-2.167,1.882-4.76,4.258-4.932C102.631,17.113,105.074,19.405,105.231,21.573z"/>
									<path fill="#F7D6CF" d="M104.654,22.026c0.163,2.259-1.389,5.914-3.617,6.075c-2.229,0.161-4.291-3.232-4.454-5.491
										c-0.164-2.259,1.48-2.951,3.709-3.112C102.521,19.335,104.491,19.766,104.654,22.026z"/>
									<path fill="#E5E5E5" d="M104.526,19.635c0,0-3.662-1.498-8.125,0.526l-0.436-3.975l8.293-0.538L104.526,19.635z"/>
									<path fill="#FDFEFF" d="M104.054,11.499c-0.614-0.062-1.196,0.086-1.691,0.376c-0.544-0.598-1.299-1.008-2.167-1.096
										c-1.186-0.12-2.288,0.385-2.986,1.246c-0.224-0.081-0.456-0.145-0.704-0.169c-1.625-0.165-3.076,1.018-3.24,2.643
										c-0.165,1.625,1.018,3.075,2.643,3.24c0.823,0.084,1.6-0.181,2.188-0.671c0.417,0.253,0.894,0.422,1.412,0.475
										c1.043,0.106,2.023-0.272,2.719-0.951c0.367,0.246,0.791,0.418,1.262,0.466c1.535,0.156,2.906-0.962,3.062-2.497
										C106.707,13.025,105.589,11.655,104.054,11.499z"/>
									<path fill="#E5E5E5" d="M106.085,13.181c0.023,0.187,0.036,0.375,0.016,0.57c-0.152,1.504-1.496,2.599-2.999,2.446
										c-0.461-0.046-0.877-0.215-1.236-0.457c-0.682,0.665-1.641,1.036-2.663,0.932c-0.507-0.052-0.974-0.218-1.384-0.465
										c-0.577,0.48-1.337,0.739-2.143,0.657c-0.928-0.094-1.704-0.62-2.161-1.354c0.354,1.036,1.274,1.826,2.434,1.944
										c0.806,0.082,1.566-0.177,2.144-0.657c0.409,0.248,0.876,0.414,1.383,0.465c1.022,0.104,1.982-0.267,2.664-0.932
										c0.36,0.241,0.775,0.41,1.236,0.457c1.504,0.153,3.499-1.382,2.71-3.71C106.087,13.111,106.085,13.146,106.085,13.181z"/>
									<path fill="#FFFFFF" d="M99.717,11.92c1.253-0.091,2.403,0.458,3.137,1.366c-0.409-1.364-1.718-2.314-3.198-2.207
										c-1.48,0.107-2.637,1.235-2.847,2.644C97.404,12.719,98.464,12.011,99.717,11.92z"/>
								</g>
							</g>
							<g>
								
									<ellipse transform="matrix(0.9968 -0.0804 0.0804 0.9968 -2.1503 8.2517)" fill="#FDFEFF" cx="101.412" cy="30.833" rx="8.161" ry="2.145"/>
								<path fill="#FDFEFF" d="M106.893,46.169c-0.071,0.952-2.613,1.59-5.679,1.426c-3.066-0.164-5.494-1.069-5.423-2.022
									c0.071-0.952,3.07-1.59,5.671-1.426C104.062,44.311,106.964,45.216,106.893,46.169z"/>
								<polygon fill="#FDFEFF" points="106.893,46.169 95.779,45.671 93.278,31.489 109.547,30.177 								"/>
							</g>
							<path fill="#E5E5E5" d="M101.51,28.679l-0.765,0.031l-2.771,0.433c-2.831,0.562-4.767,1.473-4.696,2.347l2.501,14.182
								l0.02,0.001c0.059,0.556,0.951,1.087,2.307,1.455l-1.195-15.681l4.86-1.43L101.51,28.679z"/>
							<polygon fill="#FDFEFF" points="98.628,27.433 97.937,29.117 100.615,30.163 101.102,28.695 							"/>
							<polygon fill="#FDFEFF" points="103.387,27.051 104.291,28.631 101.771,30.016 101.102,28.695 							"/>
							<g>
								<polygon fill="#3175BB" points="98.486,27.639 101.219,29.666 101.24,30.285 97.019,29.353 								"/>
								<polygon fill="#3175BB" points="103.508,27.224 101.182,29.707 101.271,30.32 105.102,28.638 								"/>
								<path fill="#3175BB" d="M100.941,30.05c0,0-0.769,0.875-0.875,1.174c-0.107,0.299,0.789,1.344,1.003,1.58
									c-0.128-0.534,0.113-0.972,0.213-1.281C101.398,31.163,101.603,29.901,100.941,30.05z"/>
								<path fill="#0363A6" d="M101.646,29.875c0,0,0.864,0.972,1.005,1.319c0.14,0.347-0.633,1.681-0.818,1.981
									c0.066-0.649-0.225-1.149-0.358-1.509C101.317,31.247,100.971,29.759,101.646,29.875z"/>
								<circle fill="#0363A6" cx="101.271" cy="29.912" r="0.416"/>
							</g>
							<circle fill="#3175BB" cx="98.511" cy="32.547" r="0.25"/>
							<circle fill="#3175BB" cx="104.624" cy="32.547" r="0.25"/>
							<circle fill="#3175BB" cx="98.914" cy="36.735" r="0.25"/>
							<circle fill="#3175BB" cx="104.417" cy="36.713" r="0.25"/>
							<circle fill="#3175BB" cx="99.382" cy="40.943" r="0.25"/>
							<circle fill="#3175BB" cx="104.156" cy="40.9" r="0.25"/>
							<circle fill="#3175BB" cx="99.795" cy="44.989" r="0.25"/>
							<circle fill="#3175BB" cx="103.808" cy="44.989" r="0.25"/>
						</g>
					</g>
					<path fill="#E5E5E5" d="M87.965,42.538c-0.755,0.952-2.148,1.12-3.112,0.375l0,0c-0.963-0.745-1.131-2.12-0.375-3.072
						l6.66-8.389c0.755-0.952,2.57-0.934,3.787-0.933l-0.675,0.558c0.962,0.745,1.13,2.12,0.375,3.072L87.965,42.538z"/>
					<path fill="#FDFEFF" d="M113.604,39.324c0.741,0.966,2.124,1.149,3.091,0.41l0,0c0.966-0.741,1.149-2.124,0.409-3.091
						l-6.565-6.839c-0.74-0.966-2.546-0.967-3.756-0.979l0.666,0.569c-0.967,0.74-1.706,2.827-0.966,3.793L113.604,39.324z"/>
				</g>
			</g>
			<g>
				<path fill="#FDFEFF" d="M117.282,37.276c0.42,1.049,0.084,2.233-0.8,2.654l-5.48,2.516c-1.27,0.601-2.759-0.026-3.233-1.422l0,0
					c-0.467-1.373,0.276-2.832,1.569-3.253l5.591-1.835C115.837,35.638,116.868,36.239,117.282,37.276L117.282,37.276z"/>
				<g>
					<path fill="#F7D6CF" d="M106.563,42.138c-0.119,0.394-0.535,0.616-0.929,0.497l-0.333-0.101
						c-0.394-0.119-0.616-0.535-0.496-0.929l0.462-1.52c0.118-0.394,0.535-0.616,0.928-0.496l0.333,0.101
						c0.395,0.12,0.616,0.536,0.497,0.929L106.563,42.138z"/>
					<path fill="#F7D6CF" d="M110.046,40.055c-0.219-0.548-0.652-0.942-1.164-1.137l-2.799,1.122l1.202,2.996l2.478-0.994
						C110.186,41.492,110.321,40.745,110.046,40.055z"/>
				</g>
			</g>
		</g>
		<g>
			<g>
				<path fill="#CB2427" d="M107.8,46.388c0-0.333-3.133-0.604-6.997-0.604c-3.865,0-6.997,0.27-6.997,0.604c0,0.273,0,8.11,0,8.385
					c0,0.332,3.132,0.603,6.997,0.603c3.864,0,6.997-0.271,6.997-0.603C107.8,54.498,107.8,46.661,107.8,46.388z"/>
				<ellipse fill="#E5E5E5" cx="100.803" cy="46.388" rx="6.876" ry="0.56"/>
				<path fill="#CB2427" d="M95.646,47.111H92.69c-0.417,0-0.754,0.277-0.754,0.618s0.337,0.618,0.754,0.618h2.955
					c0.417,0,0.754-0.277,0.754-0.618S96.062,47.111,95.646,47.111z M95.295,47.726h-2.594c-0.167,0-0.302-0.049-0.302-0.109
					s0.135-0.109,0.302-0.109h2.594c0.166,0,0.301,0.049,0.301,0.109S95.461,47.726,95.295,47.726z"/>
				<path fill="#CB2427" d="M109.036,47.111h-2.955c-0.417,0-0.754,0.277-0.754,0.618s0.337,0.618,0.754,0.618h2.955
					c0.416,0,0.754-0.277,0.754-0.618S109.452,47.111,109.036,47.111z M108.687,47.726h-2.595c-0.166,0-0.302-0.049-0.302-0.109
					s0.136-0.109,0.302-0.109h2.595c0.166,0,0.301,0.049,0.301,0.109S108.853,47.726,108.687,47.726z"/>
			</g>
			<path fill="#B11F24" d="M93.813,54.784c0.076,0.327,3.173,0.591,6.99,0.591c3.864,0,6.997-0.271,6.997-0.603v-6.589
				C106.955,55.525,98.933,55.525,93.813,54.784z"/>
		</g>
		<path fill="#484848" d="M108.898,36.458c-0.385-0.261-1.377,0.637-2.093,1.806l-5.322,8.681c0.216-0.001,0.426-0.004,0.635-0.008
			l5.877-7.867C108.815,37.972,109.283,36.719,108.898,36.458z"/>
		<path fill="#F7D6CF" d="M107.886,43.574c-0.293,0.29-0.769,0.362-1.073,0.156l-1.866-1.265c-0.392-0.266-0.439-0.77-0.09-1.116
			l1.93-1.91c0.349-0.346,0.907-0.348,1.234-0.017l1.556,1.571c0.254,0.257,0.216,0.693-0.076,0.982L107.886,43.574z"/>
		<path fill="#FDFEFF" d="M84.986,43.042c0.896,0.655,2.472,0.236,3.313-0.363c0.754-0.537,4.802-3.046,4.802-3.046
			c0.981-1.106,0.998-2.116-0.22-2.906l0,0c-1.198-0.777-2.504-1.06-4.352,0.361l-4.126,3.334
			C83.831,41.242,84.1,42.394,84.986,43.042L84.986,43.042z"/>
		<path fill="#CB2427" d="M96.346,37.381c0.587-4.395,0.682-8.008,0.21-8.071c-0.417-0.056-1.139,2.699-1.706,6.385l-0.443-0.054
			c-0.606-0.074-1.157,0.357-1.231,0.963l-0.104,0.85c-0.074,0.606,0.357,1.158,0.963,1.232l0.412,0.051
			c-0.407,3.647-0.429,6.432-0.016,6.487C94.901,45.287,95.759,41.775,96.346,37.381z M94.431,38.177
			c-0.561-0.069-0.959-0.579-0.891-1.139c0.069-0.561,0.58-0.959,1.14-0.891l0.102,0.013c-0.048,0.326-0.096,0.656-0.141,0.993
			c-0.047,0.351-0.089,0.695-0.13,1.034L94.431,38.177z"/>
		<path fill="#F7D6CF" d="M93.237,34.877c1.373,1.576,0.479,4.128,0.479,4.128c0.064,0.547-2.631,0.088-2.767-1.085l-0.184-1.579
			C90.638,35.245,92.875,34.462,93.237,34.877z"/>
	</g>
	<circle fill="#FFFFFF" cx="99.61" cy="35.63" r="3.477"/>
	<g>
		<path opacity="0.5" fill="#FFFFFF" d="M105.874,31.329c-0.955-2.653-3.881-4.03-6.535-3.074c-2.491,0.897-3.855,3.528-3.225,6.042
			c-0.458,0.799-0.577,1.787-0.24,2.721c0.314,0.875,0.966,1.529,1.754,1.875c0.021,0.05,0.041,0.101,0.063,0.149
			c-0.574,0.834-0.754,1.922-0.384,2.948c0.609,1.691,2.474,2.569,4.165,1.959c1.692-0.609,2.569-2.474,1.96-4.165
			c-0.031-0.087-0.068-0.171-0.106-0.254c0.438-0.636,0.645-1.42,0.555-2.211C105.804,36.051,106.689,33.593,105.874,31.329z"/>
		<path opacity="0.1" fill="#E5E5E5" d="M105.399,35.21c-0.195-1.354-1.161-2.404-2.389-2.778c-0.455-1.082-1.588-1.769-2.804-1.594
			c-1.445,0.208-2.448,1.549-2.24,2.994c0.079,0.548,0.322,1.032,0.671,1.411c-0.042,0.306-0.044,0.621,0.002,0.941
			c0.001,0.006,0.002,0.012,0.004,0.018c-1.045,0.246-1.751,1.244-1.595,2.326c0.147,1.021,1.008,1.758,2.004,1.79
			c-0.034,0.188-0.045,0.382-0.023,0.581c-0.888,0.236-1.482,1.097-1.348,2.028c0.145,1.003,1.076,1.7,2.079,1.556
			c0.904-0.13,1.553-0.9,1.569-1.785c0.003-0.001,0.007,0,0.011-0.001c1.114-0.16,1.887-1.193,1.727-2.308
			c-0.076-0.532-0.355-0.981-0.744-1.293c0.062-0.005,0.122-0.008,0.184-0.017C104.374,38.809,105.669,37.077,105.399,35.21z"/>
	</g>
</g>
</svg>
